<?xml version="1.0" encoding="UTF-8"?>
<svg id="SvgjsSvg1001" xmlns="http://www.w3.org/2000/svg" version="1.1" xmlns:svgjs="http://svgjs.com/svgjs" viewBox="0 0 288 288">
  <!-- Generator: Adobe Illustrator 29.5.1, SVG Export Plug-In . SVG Version: 2.1.0 Build 141)  -->
  <defs>
    <style>
      .st0 {
        fill: #c83737;
      }
    </style>
  </defs>
  <g id="SvgjsG1008">
    <path class="st0" d="M274.62,86.37c-.24-.6-.47-1.21-.74-1.81-3.99-9.04-9.34-16.91-16.07-23.64-6.7-6.7-14.57-11.99-23.61-15.83-9.06-3.83-18.67-5.75-28.8-5.75s-20.11,1.93-28.98,5.75c-8.28,3.54-15.59,8.4-22.06,14.4v-2.49c0-8.78-7.12-15.92-15.91-15.92H26.88c-8.78,0-15.91,7.14-15.91,15.92s7.13,15.91,15.91,15.91h87.68L11.71,211.41c-2.04,2.75-3.14,6.08-3.14,9.49v10.39c0,8.79,7.13,15.92,15.92,15.92h118.75c8.4,0,15.26-6.51,15.87-14.75,5.26,4.19,11.1,7.7,17.54,10.43,9.06,3.86,18.61,5.76,28.79,5.76,15.36,0,29.06-4.1,41.11-12.34,9.74-6.63,17.44-14.89,23.04-24.76,4.7-8.31,8-14.86,6.89-21.04-.98-5.45-3.92-10.98-13.13-13.42-3.27,0-7.76.98-10.34,2.78-2.61,1.78-4.47,4.2-5.54,7.19l-2.56,5.25c-3.56,7.7-8.84,13.78-15.85,18.3-6.98,4.53-14.86,6.78-23.63,6.78-5.77,0-11.31-1.08-16.67-3.27-5.31-2.2-9.92-5.28-13.76-9.25-3.85-3.97-6.92-8.58-9.26-13.78-2.31-5.21-3.48-10.68-3.48-16.45v-13.97h99.95s8.56-.87,12.32-4.35c5.41-5,4.88-12.13,4.88-12.13,0,0-.25-28.59-1.91-42.76-.6-5.07-2.88-15.05-2.88-15.05ZM48.43,215.38l83.26-112.13c-.44,3.31-.68,6.68-.68,10.1v61.27c0,10.15,1.97,19.74,5.97,28.8,1.85,4.24,4.06,8.23,6.52,11.96-.09,0-.17,0-.27,0H48.43ZM248.59,129.38h-86.33v-16.03c0-5.73,1.07-11.23,3.27-16.43s5.28-9.82,9.28-13.79c3.93-3.97,8.55-7.05,13.76-9.26,5.2-2.19,10.83-3.28,16.87-3.28s11.3,1.09,16.64,3.28c5.35,2.22,9.95,5.29,13.77,9.26,3.85,3.97,6.91,8.58,9.26,13.79,2.34,5.2,3.48,10.7,3.48,16.43v16.03Z"/>
  </g>
</svg>